<svg width="41" height="40" viewBox="0 0 41 40" fill="none" xmlns="http://www.w3.org/2000/svg">
<g id="storefront">
<mask id="mask0_252_1692" style="mask-type:alpha" maskUnits="userSpaceOnUse" x="0" y="0" width="41" height="40">
<rect id="Bounding box" x="0.666504" width="40" height="40" fill="#D9D9D9"/>
</mask>
<g mask="url(#mask0_252_1692)">
<path id="storefront_2" d="M33.801 18.7438V30.7925C33.801 31.4722 33.5767 32.0378 33.1281 32.4892C32.6794 32.9408 32.1175 33.1667 31.4422 33.1667H9.82681C9.15125 33.1667 8.58917 32.9375 8.14056 32.4792C7.69195 32.0208 7.46764 31.4636 7.46764 30.8075V18.6379C6.48681 18.0632 5.88903 17.3132 5.67431 16.3879C5.45958 15.4626 5.46653 14.5086 5.69514 13.5258L7.48389 8.51293C7.62278 7.88904 7.90472 7.45307 8.32972 7.20501C8.755 6.95723 9.31347 6.83334 10.0051 6.83334H31.1993C31.891 6.83334 32.4478 6.93806 32.8697 7.14751C33.2919 7.35695 33.5757 7.79071 33.721 8.44876L35.5735 13.5258C35.8021 14.5086 35.8021 15.484 35.5735 16.4521C35.3449 17.4199 34.754 18.1838 33.801 18.7438ZM24.301 17.8333C25.2049 17.8333 25.9276 17.5961 26.4693 17.1217C27.011 16.6475 27.254 16.1326 27.1985 15.5771L26.006 8.16668H21.4676V14.9842C21.4676 15.7853 21.7475 16.4604 22.3072 17.0096C22.8672 17.5588 23.5318 17.8333 24.301 17.8333ZM16.9468 17.8333C17.7726 17.8333 18.4549 17.5588 18.9935 17.0096C19.5318 16.4604 19.801 15.7853 19.801 14.9842V8.16668H15.2626L14.0701 15.705C14.0574 16.1111 14.3111 16.5674 14.8314 17.0738C15.3517 17.5801 16.0568 17.8333 16.9468 17.8333ZM9.63431 17.8333C10.3693 17.8333 10.9938 17.6111 11.5076 17.1667C12.0215 16.7222 12.3276 16.1678 12.426 15.5033L13.596 8.16668H10.0189C9.65556 8.16668 9.36708 8.24682 9.15347 8.40709C8.93986 8.56737 8.77958 8.80779 8.67264 9.12834L6.92597 14.1408C6.59681 15.1003 6.70681 15.9556 7.25597 16.7067C7.80514 17.4578 8.59792 17.8333 9.63431 17.8333ZM31.6343 17.8333C32.521 17.8333 33.2833 17.4792 33.9214 16.7708C34.5592 16.0625 34.7135 15.1858 34.3843 14.1408L32.596 9.06418C32.489 8.74362 32.3288 8.5139 32.1151 8.37501C31.9015 8.23612 31.6131 8.16668 31.2497 8.16668H27.6726L28.8426 15.5033C28.941 16.1678 29.254 16.7222 29.7818 17.1667C30.3096 17.6111 30.9271 17.8333 31.6343 17.8333ZM9.82681 31.8333H31.4422C31.7411 31.8333 31.9868 31.7372 32.1793 31.545C32.3715 31.3525 32.4676 31.1067 32.4676 30.8075V19.0383C32.3821 19.0597 32.2592 19.0865 32.0989 19.1188C31.9389 19.1507 31.784 19.1667 31.6343 19.1667C30.9399 19.1667 30.2801 19.0133 29.6551 18.7067C29.0301 18.4 28.489 17.9263 28.0318 17.2854C27.596 17.8835 27.0675 18.3465 26.4464 18.6746C25.825 19.0026 25.0671 19.1667 24.1726 19.1667C23.559 19.1667 22.9746 19.0118 22.4193 18.7021C21.864 18.3921 21.269 17.9199 20.6343 17.2854C20.0765 17.9199 19.4515 18.3921 18.7593 18.7021C18.0671 19.0118 17.4271 19.1667 16.8393 19.1667C16.2518 19.1667 15.6472 19.0539 15.0256 18.8283C14.4036 18.6031 13.8288 18.0888 13.301 17.2854C12.4543 18.119 11.7111 18.641 11.0714 18.8513C10.4317 19.0615 9.95264 19.1667 9.63431 19.1667C9.48486 19.1667 9.3407 19.1507 9.20181 19.1188C9.06292 19.0865 8.92931 19.0597 8.80097 19.0383V30.8075C8.80097 31.1067 8.89708 31.3525 9.08931 31.545C9.28181 31.7372 9.52764 31.8333 9.82681 31.8333ZM31.4422 31.8333H9.62556H31.6372H31.4422Z" fill="black"/>
</g>
</g>
</svg>
