<svg width="65" height="64" viewBox="0 0 65 64" fill="none" xmlns="http://www.w3.org/2000/svg">
<mask id="mask0_229_154" style="mask-type:alpha" maskUnits="userSpaceOnUse" x="0" y="0" width="65" height="64">
<rect x="0.666687" width="64" height="64" fill="#D9D9D9"/>
</mask>
<g mask="url(#mask0_229_154)">
<path d="M16.6667 48.5333C14.7178 48.5333 13.0751 47.8649 11.7387 46.528C10.4018 45.1916 9.73335 43.5489 9.73335 41.6V22.4C9.73335 20.4511 10.4018 18.8085 11.7387 17.472C13.0751 16.1351 14.7178 15.4667 16.6667 15.4667H48.6667C50.6156 15.4667 52.2582 16.1351 53.5947 17.472C54.9316 18.8085 55.6 20.4511 55.6 22.4V41.6C55.6 43.5489 54.9316 45.1916 53.5947 46.528C52.2582 47.8649 50.6156 48.5333 48.6667 48.5333H16.6667ZM16.6667 23.7333H48.6667C49.5796 23.7333 50.4445 23.924 51.2614 24.3053C52.0787 24.6862 52.8138 25.1793 53.4667 25.7847V22.4C53.4667 21.0667 53 19.9333 52.0667 19C51.1334 18.0667 50 17.6 48.6667 17.6H16.6667C15.3334 17.6 14.2 18.0667 13.2667 19C12.3334 19.9333 11.8667 21.0667 11.8667 22.4V25.7847C12.5196 25.1349 13.2547 24.6307 14.072 24.272C14.8889 23.9129 15.7538 23.7333 16.6667 23.7333ZM12.1587 29.682L41.39 36.836C41.6771 36.9249 41.9727 36.9333 42.2767 36.8613C42.5811 36.7898 42.8376 36.66 43.046 36.472L52.7127 28.3387C52.3265 27.576 51.7736 26.9733 51.054 26.5307C50.3345 26.088 49.5387 25.8667 48.6667 25.8667H16.6667C15.5725 25.8667 14.5656 26.2478 13.646 27.01C12.7265 27.7727 12.2307 28.6633 12.1587 29.682Z" fill="#6685E0"/>
</g>
</svg>
