<svg width="29" height="22" viewBox="0 0 29 22" fill="none" xmlns="http://www.w3.org/2000/svg">
<path d="M0.166626 21.3334V19.8334H4.16663V3.02591C4.16663 2.37703 4.3976 1.82161 4.85954 1.35966C5.32149 0.89772 5.8769 0.666748 6.52579 0.666748H26.8333V2.00008H6.52579C6.22663 2.00008 5.98079 2.09619 5.78829 2.28841C5.59607 2.48091 5.49996 2.72675 5.49996 3.02591V19.8334H13.6345V21.3334H0.166626ZM20.1079 21.3334C19.7743 21.3334 19.4923 21.2205 19.262 20.9947C19.0318 20.7688 18.9166 20.489 18.9166 20.1551V6.83258C18.9166 6.49869 19.0295 6.21661 19.2554 5.98633C19.4809 5.75605 19.7607 5.64091 20.0945 5.64091H27.6741C28.0077 5.64091 28.2897 5.75397 28.52 5.98008C28.7502 6.20592 28.8654 6.48577 28.8654 6.81966V20.1417C28.8654 20.4756 28.7525 20.7577 28.5266 20.988C28.3011 21.2183 28.0213 21.3334 27.6875 21.3334H20.1079Z" fill="black"/>
</svg>
