<svg width="40" height="40" viewBox="0 0 40 40" fill="none" xmlns="http://www.w3.org/2000/svg">
<g id="data_saver_on">
<mask id="mask0_252_1675" style="mask-type:alpha" maskUnits="userSpaceOnUse" x="0" y="0" width="40" height="40">
<rect id="Bounding box" width="40" height="40" fill="#D9D9D9"/>
</mask>
<g mask="url(#mask0_252_1675)">
<path id="data_saver_on_2" d="M20.0001 34.25C18.0256 34.25 16.1702 33.8778 14.4338 33.1333C12.6974 32.3889 11.1751 31.3644 9.86675 30.06C8.55841 28.7553 7.53133 27.2317 6.7855 25.4892C6.03967 23.7464 5.66675 21.8872 5.66675 19.9117C5.66675 16.2761 6.86536 13.1036 9.26258 10.3942C11.6601 7.68471 14.7392 6.10888 18.5001 5.66666V6.71791C15.0579 7.17096 12.2336 8.6611 10.0272 11.1883C7.82105 13.7155 6.718 16.6297 6.718 19.9308C6.718 23.6089 8.0098 26.7397 10.5934 29.3233C13.177 31.9069 16.3126 33.1987 20.0001 33.1987C22.2373 33.1987 24.2908 32.6933 26.1605 31.6825C28.0299 30.6719 29.5416 29.359 30.6955 27.7437L31.6313 28.3333C30.2233 30.1967 28.5252 31.6486 26.5372 32.6892C24.5491 33.7297 22.3701 34.25 20.0001 34.25ZM19.3334 26.0833V20.5833H13.8334V19.25H19.3334V13.75H20.6667V19.25H26.1667V20.5833H20.6667V26.0833H19.3334ZM33.0676 25.75L32.1313 25.2242C32.4797 24.5233 32.7586 23.7076 32.968 22.7771C33.1774 21.8465 33.2822 20.893 33.2822 19.9167C33.2822 16.5553 32.1577 13.6176 29.9088 11.1037C27.6599 8.59013 24.857 7.12818 21.5001 6.71791V5.66666C25.1115 6.00249 28.1533 7.54318 30.6255 10.2887C33.0974 13.0343 34.3334 16.2436 34.3334 19.9167C34.3334 20.9817 34.2191 22.0005 33.9905 22.9733C33.7619 23.9461 33.4542 24.8717 33.0676 25.75Z" fill="black"/>
</g>
</g>
</svg>
