<svg width="207" height="345" viewBox="0 0 207 345" fill="none" xmlns="http://www.w3.org/2000/svg">
<rect y="48" width="206" height="24" fill="black"/>
<path d="M0.5 272H206.5V296H0.5V272Z" fill="black"/>
<path d="M0.5 272H206.5V296H0.5V272Z" fill="black"/>
<path d="M193 90C193 113.869 183.518 136.761 166.64 153.64C149.761 170.518 126.869 180 103 180C79.1305 180 56.2387 170.518 39.3604 153.64C22.4821 136.761 13 113.869 13 90L34.2641 90C34.2641 108.23 41.5059 125.713 54.3964 138.604C67.2869 151.494 84.7701 158.736 103 158.736C121.23 158.736 138.713 151.494 151.604 138.604C164.494 125.713 171.736 108.23 171.736 90H193Z" fill="black"/>
<path d="M193 255C193 231.131 183.518 208.239 166.64 191.36C149.761 174.482 126.869 165 103 165C79.1305 165 56.2387 174.482 39.3604 191.36C22.4821 208.239 13 231.131 13 255L34.2641 255C34.2641 236.77 41.5059 219.287 54.3964 206.396C67.2869 193.506 84.7701 186.264 103 186.264C121.23 186.264 138.713 193.506 151.604 206.396C164.494 219.287 171.736 236.77 171.736 255H193Z" fill="black"/>
<path d="M160 111.5C156.5 123 152.205 132.023 141.891 139.431C131.576 146.838 117.587 151 103 151C88.4131 151 74.4236 146.838 64.1091 139.431C53.7946 132.023 46 121.976 46 111.5C61.9726 108.456 69.8736 106.239 103 111.5C123.08 115.963 163.5 100 160 111.5Z" fill="#FDAB02"/>
<path d="M163 255.5C163 252.677 158.015 247.609 155 245C151.985 242.391 147.572 242.294 142 240.297C136.428 238.301 133.241 236.717 125.961 235.637C103 226.5 108 206.5 103 193.5C91.5 218 103 219 80.039 235.637C72.7595 236.717 69.5715 238.301 64 240.297C58.4285 242.294 54.5153 244.664 51.5 247.272C48.4847 249.881 43 252.677 43 255.5H103H163Z" fill="#FDAB02"/>
</svg>
