<svg width="64" height="64" viewBox="0 0 64 64" fill="none" xmlns="http://www.w3.org/2000/svg">
<mask id="mask0_229_160" style="mask-type:alpha" maskUnits="userSpaceOnUse" x="0" y="0" width="64" height="64">
<rect width="64" height="64" fill="#D9D9D9"/>
</mask>
<g mask="url(#mask0_229_160)">
<path d="M25.308 48.5333H12.8413C11.7915 48.5333 10.9 48.1777 10.1667 47.4666C9.43332 46.7555 9.06665 45.8528 9.06665 44.7586V19.2413C9.06665 18.1915 9.43332 17.2999 10.1667 16.5666C10.9 15.8333 11.7915 15.4666 12.8413 15.4666H51.1587C52.2084 15.4666 53.1 15.8333 53.8333 16.5666C54.5667 17.2999 54.9333 18.1915 54.9333 19.2413V29.8459H51.2613L38.646 42.4613L30.7793 34.4253L20.99 44.2153L25.308 48.5333ZM38.646 53.7026L29.2253 44.2153L30.7793 42.6613L38.646 50.6973L53.482 35.8613L55.036 37.3126L38.646 53.7026ZM11.2 24.5539V29.8459H52.8V24.5539H11.2Z" fill="#6685E0"/>
</g>
</svg>
