<svg width="65" height="64" viewBox="0 0 65 64" fill="none" xmlns="http://www.w3.org/2000/svg">
<mask id="mask0_229_166" style="mask-type:alpha" maskUnits="userSpaceOnUse" x="0" y="0" width="65" height="64">
<rect x="0.833374" width="64" height="64" fill="#D9D9D9"/>
</mask>
<g mask="url(#mask0_229_166)">
<path d="M32.0541 54.9333V49.4566C29.7839 49.3059 27.8514 48.4204 26.2567 46.7999C24.6616 45.1795 23.7752 43.1897 23.5974 40.8306H25.1054C25.2832 42.8306 26.113 44.5221 27.5947 45.9053C29.077 47.2879 30.8232 47.9793 32.8334 47.9793C34.8436 47.9793 36.5676 47.2844 38.0054 45.8946C39.4427 44.5044 40.2725 42.8164 40.4947 40.8306H42.1207C41.943 43.1897 41.0481 45.1795 39.4361 46.7999C37.8241 48.4204 35.883 49.3059 33.6127 49.4566V54.9333H32.0541ZM32.8667 43.3946C31.9316 43.3946 31.1401 43.0955 30.4921 42.4973C29.8445 41.899 29.5207 41.1435 29.5207 40.2306V34.5386C29.5207 33.6257 29.8445 32.8701 30.4921 32.2719C31.1401 31.6737 31.9316 31.3746 32.8667 31.3746C33.8014 31.3746 34.5816 31.6737 35.2074 32.2719C35.8332 32.8701 36.1461 33.6257 36.1461 34.5386V40.2306C36.1461 41.1435 35.8332 41.899 35.2074 42.4973C34.5816 43.0955 33.8014 43.3946 32.8667 43.3946ZM6.70007 35.5279V32.8413C6.70007 31.935 6.95141 31.169 7.45407 30.5433C7.95674 29.9179 8.7243 29.3557 9.75674 28.8566C11.5856 27.9366 13.425 27.2664 15.2747 26.8459C17.1241 26.4255 18.9325 26.2153 20.7001 26.2153C22.2587 26.2153 23.7936 26.3546 25.3047 26.6333C26.8163 26.9119 28.3174 27.347 29.8081 27.9386C27.8694 28.3519 26.1376 29.2561 24.6127 30.6513C23.0879 32.0459 22.0059 33.6715 21.3667 35.5279H6.70007ZM44.3001 35.5279C43.661 33.6715 42.579 32.0459 41.0541 30.6513C39.5292 29.2561 37.7974 28.3519 35.8587 27.9386C37.3494 27.347 38.8505 26.9119 40.3621 26.6333C41.8732 26.3546 43.4081 26.2153 44.9667 26.2153C46.7343 26.2153 48.5427 26.4255 50.3921 26.8459C52.2419 27.2664 54.0812 27.9366 55.9101 28.8566C56.9425 29.3557 57.7101 29.9179 58.2127 30.5433C58.7154 31.169 58.9667 31.935 58.9667 32.8413V35.5279H44.3001ZM20.7034 21.9899C18.9234 21.9899 17.4094 21.3617 16.1614 20.1053C14.9139 18.8488 14.2901 17.323 14.2901 15.5279C14.2901 13.7333 14.913 12.2077 16.1587 10.9513C17.4045 9.69481 18.9172 9.06659 20.6967 9.06659C22.4767 9.06659 23.9907 9.69481 25.2387 10.9513C26.4863 12.2077 27.1101 13.7333 27.1101 15.5279C27.1101 17.323 26.4872 18.8488 25.2414 20.1053C23.9956 21.3617 22.483 21.9899 20.7034 21.9899ZM44.9701 21.9899C43.1901 21.9899 41.6761 21.3617 40.4281 20.1053C39.1805 18.8488 38.5567 17.323 38.5567 15.5279C38.5567 13.7333 39.1796 12.2077 40.4254 10.9513C41.6712 9.69481 43.1839 9.06659 44.9634 9.06659C46.7434 9.06659 48.2574 9.69481 49.5054 10.9513C50.753 12.2077 51.3767 13.7333 51.3767 15.5279C51.3767 17.323 50.7539 18.8488 49.5081 20.1053C48.2623 21.3617 46.7496 21.9899 44.9701 21.9899Z" fill="#6685E0"/>
</g>
</svg>
