<svg width="490" height="417" viewBox="0 0 490 417" fill="none" xmlns="http://www.w3.org/2000/svg">
<path d="M0 16C0 7.16346 7.16344 0 16 0H490V416H16C7.16343 416 0 408.837 0 400V16Z" fill="#FFE3CC"/>
<g clip-path="url(#clip0_160_18)">
<path d="M78.2368 376.76C71.8429 381.163 65.3046 385.707 60.8771 392.084C56.45 398.461 54.5173 407.167 58.0747 414.067L57.9829 414.497C60.6791 415.445 63.5739 415.682 66.3885 415.187C69.2031 414.691 71.8426 413.479 74.0526 411.667C79.6808 406.943 81.4457 399.16 82.8814 391.953L87.1284 370.638L78.2368 376.76Z" fill="#F0F0F0"/>
<path d="M84.3952 398.255C80.13 399.199 75.7597 400.186 72.1024 402.575C68.4452 404.964 65.5964 409.094 65.9921 413.445L65.8533 413.65C67.0588 414.714 68.5181 415.45 70.0906 415.787C71.6631 416.124 73.2958 416.05 74.8314 415.572C78.7652 414.299 81.3314 410.614 83.6041 407.16L90.3264 396.943L84.3952 398.255Z" fill="#F0F0F0"/>
<path d="M440.471 77.0285H76.2891C76.1493 77.028 76.0153 76.9721 75.9166 76.873C75.8178 76.7739 75.7624 76.6398 75.7624 76.4999C75.7624 76.36 75.8178 76.2258 75.9166 76.1268C76.0153 76.0277 76.1493 75.9718 76.2891 75.9713H440.471C440.611 75.9718 440.745 76.0277 440.844 76.1268C440.943 76.2258 440.998 76.36 440.998 76.4999C440.998 76.6398 440.943 76.7739 440.844 76.873C440.745 76.9721 440.611 77.028 440.471 77.0285Z" fill="#CACACA"/>
<path d="M88.186 69.6285C91.3971 69.6285 94.0003 67.0253 94.0003 63.8142C94.0003 60.6031 91.3971 58 88.186 58C84.9749 58 82.3718 60.6031 82.3718 63.8142C82.3718 67.0253 84.9749 69.6285 88.186 69.6285Z" fill="#3F3D56"/>
<path d="M108.272 69.6285C111.483 69.6285 114.086 67.0253 114.086 63.8142C114.086 60.6031 111.483 58 108.272 58C105.06 58 102.457 60.6031 102.457 63.8142C102.457 67.0253 105.06 69.6285 108.272 69.6285Z" fill="#3F3D56"/>
<path d="M128.357 69.6285C131.568 69.6285 134.171 67.0253 134.171 63.8142C134.171 60.6031 131.568 58 128.357 58C125.146 58 122.543 60.6031 122.543 63.8142C122.543 67.0253 125.146 69.6285 128.357 69.6285Z" fill="#3F3D56"/>
<path d="M428.437 61.5564H414.166C413.886 61.5564 413.617 61.445 413.418 61.2468C413.22 61.0485 413.109 60.7796 413.109 60.4993C413.109 60.2189 413.22 59.95 413.418 59.7518C413.617 59.5535 413.886 59.4421 414.166 59.4421H428.437C428.718 59.4421 428.986 59.5535 429.185 59.7518C429.383 59.95 429.494 60.2189 429.494 60.4993C429.494 60.7796 429.383 61.0485 429.185 61.2468C428.986 61.445 428.718 61.5564 428.437 61.5564Z" fill="#3F3D56"/>
<path d="M428.437 65.5206H414.166C413.886 65.5206 413.617 65.4093 413.418 65.211C413.22 65.0128 413.109 64.7439 413.109 64.4635C413.109 64.1831 413.22 63.9143 413.418 63.716C413.617 63.5178 413.886 63.4064 414.166 63.4064H428.437C428.718 63.4064 428.986 63.5178 429.185 63.716C429.383 63.9143 429.494 64.1831 429.494 64.4635C429.494 64.7439 429.383 65.0128 429.185 65.211C428.986 65.4093 428.718 65.5206 428.437 65.5206Z" fill="#3F3D56"/>
<path d="M428.437 69.4847H414.166C413.886 69.4847 413.617 69.3734 413.418 69.1751C413.22 68.9769 413.109 68.708 413.109 68.4276C413.109 68.1472 413.22 67.8784 413.418 67.6801C413.617 67.4819 413.886 67.3705 414.166 67.3705H428.437C428.717 67.3714 428.985 67.4832 429.182 67.6814C429.38 67.8795 429.491 68.1479 429.491 68.4276C429.491 68.7074 429.38 68.9757 429.182 69.1738C428.985 69.372 428.717 69.4838 428.437 69.4847Z" fill="#3F3D56"/>
<path d="M323.781 99.6942H82.2262V244.521H323.781V99.6942Z" fill="#F0F0F0"/>
<path d="M429.494 99.6942H353.381V145.329H429.494V99.6942Z" fill="#F0F0F0"/>
<path d="M414.309 166.294H369.022C368.456 166.294 367.914 166.069 367.513 165.669C367.113 165.269 366.889 164.726 366.889 164.161C366.889 163.595 367.113 163.052 367.513 162.652C367.914 162.252 368.456 162.027 369.022 162.027H414.309C414.875 162.027 415.418 162.252 415.818 162.652C416.218 163.052 416.442 163.595 416.442 164.161C416.442 164.726 416.218 165.269 415.818 165.669C415.418 166.069 414.875 166.294 414.309 166.294Z" fill="#E4E4E4"/>
<path d="M407.007 158.992H376.324C375.758 158.992 375.215 158.767 374.815 158.367C374.415 157.967 374.19 157.425 374.19 156.859C374.19 156.293 374.415 155.751 374.815 155.351C375.215 154.951 375.758 154.726 376.324 154.726H407.007C407.573 154.726 408.116 154.951 408.516 155.351C408.916 155.751 409.141 156.293 409.141 156.859C409.141 157.425 408.916 157.967 408.516 158.367C408.116 158.767 407.573 158.992 407.007 158.992Z" fill="#E4E4E4"/>
<path d="M429.494 182.679H353.381V228.314H429.494V182.679Z" fill="#F0F0F0"/>
<path d="M414.309 249.279H369.022C368.456 249.279 367.914 249.054 367.513 248.654C367.113 248.254 366.889 247.711 366.889 247.146C366.889 246.58 367.113 246.037 367.513 245.637C367.914 245.237 368.456 245.012 369.022 245.012H414.309C414.875 245.012 415.418 245.237 415.818 245.637C416.218 246.037 416.442 246.58 416.442 247.146C416.442 247.711 416.218 248.254 415.818 248.654C415.418 249.054 414.875 249.279 414.309 249.279Z" fill="#E4E4E4"/>
<path d="M407.007 241.977H376.324C375.758 241.977 375.215 241.752 374.815 241.352C374.415 240.952 374.19 240.41 374.19 239.844C374.19 239.278 374.415 238.736 374.815 238.335C375.215 237.935 375.758 237.711 376.324 237.711H407.007C407.573 237.712 408.114 237.937 408.513 238.337C408.913 238.737 409.137 239.279 409.137 239.844C409.137 240.409 408.913 240.951 408.513 241.351C408.114 241.751 407.573 241.976 407.007 241.977Z" fill="#E4E4E4"/>
<path d="M207.201 177.606C217.156 177.606 225.227 169.535 225.227 159.58C225.227 149.625 217.156 141.555 207.201 141.555C197.246 141.555 189.176 149.625 189.176 159.58C189.176 169.535 197.246 177.606 207.201 177.606Z" fill="#9E616A"/>
<path d="M237.572 244.522H192.374L194.911 187.368L195.223 187.04L199.711 182.304H213.982L219.278 187.431L219.696 187.838L230.965 198.637L237.572 244.522Z" fill="#FDAB02"/>
<path d="M204.885 244.522H170.534C170.307 222.649 170.127 206.148 170.127 206.148L171.882 205.08L171.892 205.075L191.158 193.377L195.202 186.807L195.223 187.04L196.413 200.888C196.413 200.888 202.877 221.772 204.885 244.522Z" fill="#2F2E41"/>
<path d="M251.627 244.522H221.059C219.426 237.111 218.575 230.055 218.945 224.172C220.446 200.138 216.984 186.807 218.485 186.807L219.278 187.431L228.708 194.879L241.124 199.43L249.739 202.59L251.24 203.14V203.864C251.246 207.501 251.283 224.388 251.627 244.522Z" fill="#2F2E41"/>
<path d="M190.148 165.22C190.148 165.22 191.679 162.53 191.323 153.545C190.967 144.56 204.649 149.642 216.082 148.785C227.515 147.928 225.095 163.785 225.095 163.785C225.095 163.785 225.919 162.843 227.685 155.189C229.451 147.536 225.442 139.909 225.442 139.909C224.261 131.867 217.897 134.444 217.897 134.444C220.962 135.637 220.373 138.189 220.373 138.189C217.779 133.64 211.415 136.218 211.415 136.218C202.927 130.891 194.325 137.905 194.325 137.905C184.071 140.233 190.084 148.387 190.084 148.387C179.773 153.598 190.148 165.22 190.148 165.22Z" fill="#2F2E41"/>
<path d="M160.581 244.521C161.458 226.978 162.13 213.215 161.865 212.152C161.125 209.197 171.564 205.196 171.882 205.08L171.887 205.075H171.892L173.885 206.148L175.344 244.521H160.581Z" fill="#2F2E41"/>
<path d="M258.815 244.522H243.302L238.861 200.666L240.69 199.329C240.69 199.329 240.849 199.366 241.124 199.43C242.546 199.784 247.134 200.984 249.739 202.59C250.316 202.916 250.825 203.348 251.24 203.864C251.494 204.168 251.621 204.558 251.595 204.953C251.463 206.195 254.845 223.754 258.815 244.522Z" fill="#2F2E41"/>
<path d="M284.931 262.229H121.076C120.446 262.23 119.842 262.481 119.396 262.927C118.951 263.373 118.701 263.977 118.701 264.607C118.701 265.237 118.951 265.842 119.396 266.288C119.842 266.734 120.446 266.985 121.076 266.986H284.931C285.244 266.986 285.554 266.925 285.843 266.806C286.132 266.686 286.395 266.511 286.616 266.29C286.837 266.069 287.013 265.807 287.132 265.518C287.252 265.229 287.314 264.92 287.314 264.607C287.314 264.294 287.252 263.985 287.132 263.696C287.013 263.407 286.837 263.145 286.616 262.924C286.395 262.703 286.132 262.528 285.843 262.408C285.554 262.289 285.244 262.228 284.931 262.229Z" fill="#CACACA"/>
<path d="M240.532 262.229V266.986H121.076C120.446 266.985 119.842 266.734 119.396 266.288C118.951 265.842 118.701 265.237 118.701 264.607C118.701 263.977 118.951 263.373 119.396 262.927C119.842 262.481 120.446 262.23 121.076 262.229H240.532Z" fill="#3F3D56"/>
<path d="M240.532 269.364C243.159 269.364 245.289 267.234 245.289 264.607C245.289 261.98 243.159 259.85 240.532 259.85C237.905 259.85 235.775 261.98 235.775 264.607C235.775 267.234 237.905 269.364 240.532 269.364Z" fill="#3F3D56"/>
<path d="M203.004 304.249C201.061 304.249 199.163 303.674 197.548 302.595C195.933 301.515 194.674 299.982 193.931 298.188C193.188 296.393 192.993 294.419 193.372 292.514C193.751 290.609 194.687 288.859 196.06 287.486C197.433 286.113 199.183 285.177 201.088 284.798C202.993 284.42 204.967 284.614 206.761 285.357C208.556 286.1 210.089 287.359 211.168 288.974C212.247 290.589 212.823 292.487 212.823 294.43C212.82 297.033 211.785 299.529 209.944 301.37C208.103 303.211 205.607 304.247 203.004 304.249ZM203.004 285.365C201.211 285.365 199.458 285.897 197.968 286.893C196.477 287.889 195.315 289.304 194.629 290.961C193.943 292.617 193.763 294.44 194.113 296.198C194.463 297.956 195.326 299.571 196.594 300.839C197.862 302.107 199.477 302.97 201.235 303.32C202.993 303.67 204.816 303.49 206.472 302.804C208.129 302.118 209.544 300.956 210.54 299.466C211.536 297.975 212.068 296.222 212.068 294.43C212.065 292.026 211.109 289.722 209.41 288.023C207.711 286.324 205.407 285.368 203.004 285.365Z" fill="#FDAB02"/>
<path d="M201.707 299.717C201.607 299.717 201.51 299.678 201.44 299.607C201.369 299.536 201.329 299.44 201.329 299.34V289.52C201.329 289.47 201.338 289.42 201.357 289.374C201.375 289.328 201.403 289.286 201.438 289.25C201.473 289.215 201.515 289.187 201.561 289.167C201.607 289.148 201.657 289.138 201.707 289.138C201.757 289.138 201.806 289.148 201.852 289.167C201.898 289.187 201.94 289.215 201.975 289.25C202.01 289.286 202.038 289.328 202.057 289.374C202.075 289.42 202.085 289.47 202.084 289.52V299.34C202.084 299.44 202.045 299.536 201.974 299.607C201.903 299.678 201.807 299.717 201.707 299.717Z" fill="#FDAB02"/>
<path d="M204.3 299.717C204.2 299.717 204.104 299.678 204.033 299.607C203.963 299.536 203.923 299.44 203.923 299.34V289.52C203.922 289.47 203.932 289.42 203.951 289.374C203.969 289.328 203.997 289.286 204.032 289.25C204.067 289.215 204.109 289.187 204.155 289.168C204.201 289.149 204.251 289.139 204.3 289.139C204.35 289.139 204.4 289.149 204.446 289.168C204.492 289.187 204.534 289.215 204.569 289.25C204.604 289.286 204.632 289.328 204.65 289.374C204.669 289.42 204.679 289.47 204.678 289.52V299.34C204.678 299.44 204.638 299.536 204.568 299.607C204.497 299.678 204.401 299.717 204.3 299.717Z" fill="#FDAB02"/>
<path d="M158.026 294.43C158.026 292.487 158.602 290.589 159.681 288.974C160.76 287.359 162.294 286.1 164.088 285.357C165.883 284.614 167.857 284.42 169.762 284.798C171.667 285.177 173.417 286.113 174.79 287.486C176.163 288.859 177.098 290.609 177.477 292.514C177.856 294.419 177.662 296.393 176.919 298.188C176.175 299.982 174.917 301.515 173.302 302.595C171.687 303.674 169.788 304.249 167.846 304.249C165.243 304.247 162.747 303.211 160.906 301.37C159.065 299.529 158.029 297.033 158.026 294.43ZM158.782 294.43C158.782 296.222 159.313 297.975 160.309 299.466C161.305 300.956 162.721 302.118 164.377 302.804C166.034 303.49 167.856 303.67 169.615 303.32C171.373 302.97 172.988 302.107 174.256 300.839C175.523 299.572 176.387 297.956 176.737 296.198C177.086 294.44 176.907 292.617 176.221 290.961C175.535 289.304 174.373 287.889 172.882 286.893C171.391 285.897 169.639 285.365 167.846 285.365C165.443 285.368 163.139 286.324 161.44 288.023C159.74 289.722 158.784 292.026 158.782 294.43Z" fill="#3F3D56"/>
<path d="M172.088 297.736C172.157 297.736 172.224 297.713 172.279 297.671C172.334 297.629 172.373 297.57 172.391 297.503C172.409 297.436 172.405 297.365 172.378 297.302C172.352 297.238 172.305 297.184 172.245 297.15L167.534 294.43L172.245 291.71C172.317 291.668 172.37 291.599 172.391 291.519C172.413 291.438 172.402 291.353 172.36 291.281C172.318 291.208 172.25 291.156 172.169 291.134C172.089 291.113 172.003 291.124 171.931 291.165L166.748 294.158C166.701 294.185 166.661 294.225 166.633 294.273C166.606 294.32 166.591 294.375 166.591 294.43C166.591 294.485 166.606 294.539 166.633 294.587C166.661 294.634 166.701 294.674 166.748 294.702L171.931 297.694C171.978 297.721 172.033 297.736 172.088 297.736Z" fill="#3F3D56"/>
<path d="M165.139 298.827C165.222 298.827 165.302 298.794 165.361 298.735C165.42 298.676 165.453 298.596 165.453 298.513V290.347C165.453 290.263 165.42 290.183 165.361 290.124C165.302 290.066 165.222 290.032 165.139 290.032C165.055 290.032 164.976 290.066 164.917 290.124C164.858 290.183 164.825 290.263 164.825 290.347V298.513C164.825 298.596 164.858 298.676 164.917 298.735C164.976 298.794 165.055 298.827 165.139 298.827Z" fill="#3F3D56"/>
<path d="M238.161 304.249C236.219 304.249 234.32 303.674 232.705 302.595C231.09 301.515 229.832 299.982 229.089 298.188C228.345 296.393 228.151 294.419 228.53 292.514C228.909 290.609 229.844 288.859 231.217 287.486C232.591 286.113 234.34 285.177 236.245 284.798C238.15 284.42 240.125 284.614 241.919 285.357C243.713 286.1 245.247 287.359 246.326 288.974C247.405 290.589 247.981 292.487 247.981 294.43C247.978 297.033 246.942 299.529 245.101 301.37C243.26 303.211 240.764 304.247 238.161 304.249ZM238.161 285.365C236.368 285.365 234.616 285.897 233.125 286.893C231.634 287.889 230.473 289.304 229.786 290.961C229.1 292.617 228.921 294.44 229.271 296.198C229.62 297.956 230.484 299.571 231.751 300.839C233.019 302.107 234.634 302.97 236.393 303.32C238.151 303.67 239.974 303.49 241.63 302.804C243.286 302.118 244.702 300.956 245.698 299.466C246.694 297.975 247.225 296.222 247.225 294.43C247.223 292.026 246.267 289.722 244.568 288.023C242.868 286.324 240.564 285.368 238.161 285.365Z" fill="#3F3D56"/>
<path d="M233.92 297.736C233.85 297.736 233.783 297.713 233.728 297.671C233.673 297.629 233.634 297.57 233.616 297.503C233.598 297.436 233.603 297.365 233.629 297.302C233.656 297.238 233.702 297.184 233.762 297.15L238.474 294.43L233.762 291.71C233.69 291.668 233.638 291.599 233.617 291.519C233.595 291.439 233.607 291.353 233.648 291.281C233.69 291.209 233.758 291.156 233.838 291.135C233.919 291.113 234.004 291.124 234.076 291.165L239.259 294.158C239.306 294.185 239.346 294.225 239.374 294.273C239.401 294.32 239.416 294.375 239.416 294.43C239.416 294.485 239.401 294.539 239.374 294.587C239.346 294.634 239.306 294.674 239.259 294.702L234.076 297.694C234.029 297.721 233.975 297.736 233.92 297.736Z" fill="#3F3D56"/>
<path d="M240.868 298.827C240.785 298.827 240.705 298.794 240.646 298.735C240.587 298.676 240.554 298.596 240.554 298.513V290.347C240.554 290.263 240.587 290.183 240.646 290.124C240.705 290.066 240.785 290.032 240.868 290.032C240.952 290.032 241.032 290.066 241.09 290.124C241.149 290.183 241.182 290.263 241.182 290.347V298.513C241.182 298.596 241.149 298.676 241.09 298.735C241.032 298.794 240.952 298.827 240.868 298.827Z" fill="#3F3D56"/>
<path d="M108.534 301.831C108.015 301.311 107.617 300.683 107.366 299.993C107.116 299.302 107.02 298.565 107.086 297.833C107.151 297.101 107.376 296.393 107.745 295.757C108.114 295.122 108.618 294.575 109.221 294.155L104.389 276.962L113.23 279.785L116.463 295.679C117.101 296.739 117.327 297.996 117.1 299.212C116.873 300.428 116.208 301.518 115.231 302.276C114.254 303.035 113.032 303.408 111.798 303.326C110.564 303.244 109.402 302.712 108.534 301.831Z" fill="#FFB6B6"/>
<path d="M106.171 216.171L104.34 214.265C104.34 214.265 98.6779 218.154 99.8759 230.209C100.761 239.114 97.9645 242.891 98.277 268.773L106.171 292.476L115.302 287.689L108.696 258.443L106.171 216.171Z" fill="#FDAB02"/>
<path d="M113.021 408.547H119.568L122.683 383.293L113.02 383.294L113.021 408.547Z" fill="#FFB6B6"/>
<path d="M111.351 406.409L124.245 406.409C126.424 406.409 128.514 407.274 130.055 408.815C131.596 410.356 132.462 412.446 132.462 414.625V414.892L111.352 414.893L111.351 406.409Z" fill="#2F2E41"/>
<path d="M132.114 406.228L138.613 407.024L144.778 382.339L135.188 381.163L132.114 406.228Z" fill="#FFB6B6"/>
<path d="M130.717 403.903L143.514 405.472C145.677 405.737 147.647 406.851 148.989 408.568C150.331 410.285 150.935 412.465 150.67 414.628L150.638 414.893L129.684 412.324L130.717 403.903Z" fill="#2F2E41"/>
<path d="M109.628 279.07C109.628 279.07 97.0158 287.689 103.321 311.02L111.849 401.579L121.98 401.508L126.271 356.823L129.187 325.364L138.932 357.895L130.917 397.812L142.746 399.057L156.919 352.637L150.084 286.546L109.628 279.07Z" fill="#2F2E41"/>
<path d="M140.058 211.818L133.646 206.66L116.639 205.96L104.34 214.265C104.34 214.265 103.07 243.835 111.393 270.176L107.03 281.18L150.658 286.653L140.058 211.818Z" fill="#FDAB02"/>
<path d="M126.309 199.631C134.365 199.631 140.896 193.1 140.896 185.044C140.896 176.988 134.365 170.457 126.309 170.457C118.252 170.457 111.721 176.988 111.721 185.044C111.721 193.1 118.252 199.631 126.309 199.631Z" fill="#FFB6B6"/>
<path d="M130.135 167.012H126.893C124.634 166.339 122.25 166.202 119.929 166.614C117.608 167.025 115.415 167.973 113.525 169.381C111.635 170.79 110.101 172.62 109.043 174.727C107.986 176.833 107.435 179.158 107.435 181.515L102.386 198.175C102.241 198.656 102.21 199.164 102.295 199.658C102.381 200.153 102.582 200.621 102.881 201.024C103.18 201.427 103.57 201.754 104.018 201.98C104.466 202.206 104.961 202.323 105.464 202.323H107.928C108.96 200.853 109.41 199.053 109.191 197.271C109.649 198.387 109.971 199.554 110.147 200.747C110.205 201.272 110.194 201.802 110.115 202.323H131.554C131.693 200.22 130.996 198.148 129.616 196.556C131.343 198.281 132.845 200.219 134.084 202.323H134.486C135.339 202.323 136.157 201.984 136.76 201.381C137.363 200.778 137.702 199.961 137.702 199.108V182.776H145.899C145.899 180.706 145.491 178.656 144.699 176.743C143.907 174.831 142.746 173.093 141.282 171.629C139.818 170.165 138.08 169.004 136.168 168.212C134.255 167.42 132.205 167.012 130.135 167.012Z" fill="#2F2E41"/>
<path d="M146.368 300.57C145.849 300.05 145.45 299.422 145.2 298.731C144.949 298.041 144.854 297.303 144.919 296.572C144.984 295.84 145.21 295.131 145.578 294.496C145.947 293.861 146.451 293.314 147.054 292.894L142.223 275.701L151.064 278.524L154.296 294.418C154.934 295.478 155.161 296.735 154.934 297.951C154.707 299.167 154.042 300.257 153.064 301.015C152.087 301.774 150.866 302.147 149.631 302.065C148.397 301.983 147.236 301.451 146.368 300.57Z" fill="#FFB6B6"/>
<path d="M134.528 215.081L140.058 211.818C140.058 211.818 148.756 210.285 149.685 221.873C150.613 233.462 151.951 263.543 151.951 263.543L154.663 288.901L144.596 291.048L133.025 256.37L134.528 215.081Z" fill="#FDAB02"/>
<path d="M185.309 416.082H51.6306C51.4633 416.082 51.3029 416.016 51.1847 415.898C51.0664 415.779 51 415.619 51 415.452C51 415.284 51.0664 415.124 51.1847 415.006C51.3029 414.888 51.4633 414.821 51.6306 414.821H185.309C185.476 414.821 185.636 414.888 185.755 415.006C185.873 415.124 185.939 415.284 185.939 415.452C185.939 415.619 185.873 415.779 185.755 415.898C185.636 416.016 185.476 416.082 185.309 416.082Z" fill="#CACACA"/>
</g>
<defs>
<clipPath id="clip0_160_18">
<rect width="390" height="358.082" fill="white" transform="translate(51 58)"/>
</clipPath>
</defs>
</svg>
