<svg width="628" height="345" viewBox="0 0 628 345" fill="none" xmlns="http://www.w3.org/2000/svg">
<path d="M294.07 144.699H311.59C311.238 150.441 309.656 155.539 306.844 159.992C304.07 164.445 300.184 167.922 295.184 170.422C290.223 172.922 284.246 174.172 277.254 174.172C271.785 174.172 266.883 173.234 262.547 171.359C258.211 169.445 254.5 166.711 251.414 163.156C248.367 159.602 246.043 155.305 244.441 150.266C242.84 145.227 242.039 139.582 242.039 133.332V127.414C242.039 121.164 242.859 115.52 244.5 110.48C246.18 105.402 248.562 101.086 251.648 97.5312C254.773 93.9766 258.504 91.2422 262.84 89.3281C267.176 87.4141 272.02 86.457 277.371 86.457C284.48 86.457 290.477 87.7461 295.359 90.3242C300.281 92.9023 304.09 96.457 306.785 100.988C309.52 105.52 311.16 110.676 311.707 116.457H294.129C293.934 113.02 293.25 110.109 292.078 107.727C290.906 105.305 289.129 103.488 286.746 102.277C284.402 101.027 281.277 100.402 277.371 100.402C274.441 100.402 271.883 100.949 269.695 102.043C267.508 103.137 265.672 104.797 264.188 107.023C262.703 109.25 261.59 112.062 260.848 115.461C260.145 118.82 259.793 122.766 259.793 127.297V133.332C259.793 137.746 260.125 141.633 260.789 144.992C261.453 148.312 262.469 151.125 263.836 153.43C265.242 155.695 267.039 157.414 269.227 158.586C271.453 159.719 274.129 160.285 277.254 160.285C280.926 160.285 283.953 159.699 286.336 158.527C288.719 157.355 290.535 155.617 291.785 153.312C293.074 151.008 293.836 148.137 294.07 144.699ZM338.543 83V173H321.668V83H338.543ZM336.141 139.074H331.512C331.551 134.66 332.137 130.598 333.27 126.887C334.402 123.137 336.023 119.895 338.133 117.16C340.242 114.387 342.762 112.238 345.691 110.715C348.66 109.191 351.941 108.43 355.535 108.43C358.66 108.43 361.492 108.879 364.031 109.777C366.609 110.637 368.816 112.043 370.652 113.996C372.527 115.91 373.973 118.43 374.988 121.555C376.004 124.68 376.512 128.469 376.512 132.922V173H359.52V132.805C359.52 129.992 359.109 127.785 358.289 126.184C357.508 124.543 356.355 123.391 354.832 122.727C353.348 122.023 351.512 121.672 349.324 121.672C346.902 121.672 344.832 122.121 343.113 123.02C341.434 123.918 340.086 125.168 339.07 126.77C338.055 128.332 337.312 130.168 336.844 132.277C336.375 134.387 336.141 136.652 336.141 139.074ZM406.219 123.43V173H389.344V109.602H405.223L406.219 123.43ZM425.32 109.191L425.027 124.836C424.207 124.719 423.211 124.621 422.039 124.543C420.906 124.426 419.871 124.367 418.934 124.367C416.551 124.367 414.48 124.68 412.723 125.305C411.004 125.891 409.559 126.77 408.387 127.941C407.254 129.113 406.395 130.539 405.809 132.219C405.262 133.898 404.949 135.812 404.871 137.961L401.473 136.906C401.473 132.805 401.883 129.035 402.703 125.598C403.523 122.121 404.715 119.094 406.277 116.516C407.879 113.938 409.832 111.945 412.137 110.539C414.441 109.133 417.078 108.43 420.047 108.43C420.984 108.43 421.941 108.508 422.918 108.664C423.895 108.781 424.695 108.957 425.32 109.191ZM428.836 141.945V140.715C428.836 136.066 429.5 131.789 430.828 127.883C432.156 123.938 434.09 120.52 436.629 117.629C439.168 114.738 442.293 112.492 446.004 110.891C449.715 109.25 453.973 108.43 458.777 108.43C463.582 108.43 467.859 109.25 471.609 110.891C475.359 112.492 478.504 114.738 481.043 117.629C483.621 120.52 485.574 123.938 486.902 127.883C488.23 131.789 488.895 136.066 488.895 140.715V141.945C488.895 146.555 488.23 150.832 486.902 154.777C485.574 158.684 483.621 162.102 481.043 165.031C478.504 167.922 475.379 170.168 471.668 171.77C467.957 173.371 463.699 174.172 458.895 174.172C454.09 174.172 449.812 173.371 446.062 171.77C442.352 170.168 439.207 167.922 436.629 165.031C434.09 162.102 432.156 158.684 430.828 154.777C429.5 150.832 428.836 146.555 428.836 141.945ZM445.711 140.715V141.945C445.711 144.602 445.945 147.082 446.414 149.387C446.883 151.691 447.625 153.723 448.641 155.48C449.695 157.199 451.062 158.547 452.742 159.523C454.422 160.5 456.473 160.988 458.895 160.988C461.238 160.988 463.25 160.5 464.93 159.523C466.609 158.547 467.957 157.199 468.973 155.48C469.988 153.723 470.73 151.691 471.199 149.387C471.707 147.082 471.961 144.602 471.961 141.945V140.715C471.961 138.137 471.707 135.715 471.199 133.449C470.73 131.145 469.969 129.113 468.914 127.355C467.898 125.559 466.551 124.152 464.871 123.137C463.191 122.121 461.16 121.613 458.777 121.613C456.395 121.613 454.363 122.121 452.684 123.137C451.043 124.152 449.695 125.559 448.641 127.355C447.625 129.113 446.883 131.145 446.414 133.449C445.945 135.715 445.711 138.137 445.711 140.715ZM515.789 123.137V173H498.914V109.602H514.734L515.789 123.137ZM513.328 139.074H508.758C508.758 134.387 509.363 130.168 510.574 126.418C511.785 122.629 513.484 119.406 515.672 116.75C517.859 114.055 520.457 112.004 523.465 110.598C526.512 109.152 529.91 108.43 533.66 108.43C536.629 108.43 539.344 108.859 541.805 109.719C544.266 110.578 546.375 111.945 548.133 113.82C549.93 115.695 551.297 118.176 552.234 121.262C553.211 124.348 553.699 128.117 553.699 132.57V173H536.707V132.512C536.707 129.699 536.316 127.512 535.535 125.949C534.754 124.387 533.602 123.293 532.078 122.668C530.594 122.004 528.758 121.672 526.57 121.672C524.305 121.672 522.332 122.121 520.652 123.02C519.012 123.918 517.645 125.168 516.551 126.77C515.496 128.332 514.695 130.168 514.148 132.277C513.602 134.387 513.328 136.652 513.328 139.074ZM563.836 141.945V140.715C563.836 136.066 564.5 131.789 565.828 127.883C567.156 123.938 569.09 120.52 571.629 117.629C574.168 114.738 577.293 112.492 581.004 110.891C584.715 109.25 588.973 108.43 593.777 108.43C598.582 108.43 602.859 109.25 606.609 110.891C610.359 112.492 613.504 114.738 616.043 117.629C618.621 120.52 620.574 123.938 621.902 127.883C623.23 131.789 623.895 136.066 623.895 140.715V141.945C623.895 146.555 623.23 150.832 621.902 154.777C620.574 158.684 618.621 162.102 616.043 165.031C613.504 167.922 610.379 170.168 606.668 171.77C602.957 173.371 598.699 174.172 593.895 174.172C589.09 174.172 584.812 173.371 581.062 171.77C577.352 170.168 574.207 167.922 571.629 165.031C569.09 162.102 567.156 158.684 565.828 154.777C564.5 150.832 563.836 146.555 563.836 141.945ZM580.711 140.715V141.945C580.711 144.602 580.945 147.082 581.414 149.387C581.883 151.691 582.625 153.723 583.641 155.48C584.695 157.199 586.062 158.547 587.742 159.523C589.422 160.5 591.473 160.988 593.895 160.988C596.238 160.988 598.25 160.5 599.93 159.523C601.609 158.547 602.957 157.199 603.973 155.48C604.988 153.723 605.73 151.691 606.199 149.387C606.707 147.082 606.961 144.602 606.961 141.945V140.715C606.961 138.137 606.707 135.715 606.199 133.449C605.73 131.145 604.969 129.113 603.914 127.355C602.898 125.559 601.551 124.152 599.871 123.137C598.191 122.121 596.16 121.613 593.777 121.613C591.395 121.613 589.363 122.121 587.684 123.137C586.043 124.152 584.695 125.559 583.641 127.355C582.625 129.113 581.883 131.145 581.414 133.449C580.945 135.715 580.711 138.137 580.711 140.715Z" fill="white"/>
<path d="M266.863 255.542C269.585 255.542 272.127 255.041 274.49 254.038C276.889 253 278.859 251.478 280.398 249.473C281.974 247.432 282.869 244.943 283.084 242.007H289.207C289.028 245.695 287.9 248.989 285.823 251.89C283.782 254.754 281.097 257.01 277.767 258.657C274.472 260.269 270.838 261.074 266.863 261.074C262.817 261.074 259.236 260.34 256.121 258.872C253.042 257.404 250.464 255.363 248.387 252.749C246.31 250.099 244.734 247.02 243.66 243.511C242.622 239.966 242.103 236.152 242.103 232.07V229.814C242.103 225.732 242.622 221.937 243.66 218.428C244.734 214.883 246.31 211.803 248.387 209.189C250.464 206.54 253.042 204.481 256.121 203.013C259.201 201.545 262.763 200.811 266.81 200.811C270.963 200.811 274.687 201.652 277.981 203.335C281.312 205.018 283.961 207.399 285.931 210.479C287.936 213.558 289.028 217.21 289.207 221.436H283.084C282.905 218.32 282.081 215.635 280.613 213.379C279.145 211.123 277.212 209.386 274.812 208.169C272.413 206.951 269.746 206.343 266.81 206.343C263.515 206.343 260.704 206.987 258.377 208.276C256.049 209.53 254.152 211.266 252.684 213.486C251.251 215.671 250.195 218.177 249.515 221.006C248.834 223.799 248.494 226.735 248.494 229.814V232.07C248.494 235.186 248.816 238.158 249.461 240.986C250.141 243.779 251.198 246.268 252.63 248.452C254.098 250.636 255.996 252.373 258.323 253.662C260.687 254.915 263.533 255.542 266.863 255.542ZM337.493 249.58V219.609C337.493 216.852 336.92 214.471 335.774 212.466C334.629 210.461 332.946 208.921 330.726 207.847C328.506 206.772 325.766 206.235 322.508 206.235C319.5 206.235 316.814 206.772 314.451 207.847C312.124 208.885 310.28 210.299 308.919 212.09C307.594 213.844 306.932 215.796 306.932 217.944L300.486 217.891C300.486 215.706 301.023 213.594 302.098 211.553C303.172 209.512 304.694 207.686 306.663 206.074C308.632 204.463 310.978 203.192 313.699 202.261C316.456 201.294 319.482 200.811 322.776 200.811C326.93 200.811 330.582 201.509 333.733 202.905C336.92 204.302 339.409 206.396 341.199 209.189C342.99 211.982 343.885 215.492 343.885 219.717V247.808C343.885 249.813 344.028 251.89 344.314 254.038C344.637 256.187 345.084 257.959 345.657 259.355V260H338.836C338.406 258.711 338.066 257.1 337.815 255.166C337.601 253.197 337.493 251.335 337.493 249.58ZM338.997 226.162L339.104 231.104H326.482C323.188 231.104 320.234 231.408 317.62 232.017C315.042 232.59 312.858 233.449 311.067 234.595C309.277 235.705 307.898 237.048 306.932 238.623C306.001 240.199 305.535 241.989 305.535 243.994C305.535 246.071 306.054 247.969 307.093 249.688C308.167 251.406 309.671 252.785 311.604 253.823C313.574 254.826 315.901 255.327 318.587 255.327C322.168 255.327 325.319 254.665 328.04 253.34C330.797 252.015 333.071 250.278 334.861 248.13C336.652 245.981 337.851 243.636 338.46 241.094L341.253 244.8C340.787 246.59 339.928 248.434 338.675 250.332C337.457 252.194 335.864 253.949 333.895 255.596C331.925 257.207 329.598 258.532 326.912 259.57C324.262 260.573 321.255 261.074 317.889 261.074C314.093 261.074 310.781 260.358 307.952 258.926C305.159 257.493 302.975 255.542 301.399 253.071C299.86 250.565 299.09 247.736 299.09 244.585C299.09 241.72 299.699 239.16 300.916 236.904C302.133 234.613 303.888 232.679 306.18 231.104C308.507 229.492 311.3 228.275 314.559 227.451C317.853 226.592 321.541 226.162 325.623 226.162H338.997ZM398.885 248.721V177.5H405.33V260H399.314L398.885 248.721ZM358.548 231.533V230.405C358.548 225.894 359.067 221.829 360.105 218.213C361.144 214.561 362.63 211.445 364.563 208.867C366.533 206.253 368.896 204.266 371.653 202.905C374.41 201.509 377.526 200.811 380.999 200.811C384.401 200.811 387.409 201.366 390.022 202.476C392.636 203.586 394.874 205.179 396.736 207.256C398.634 209.333 400.156 211.803 401.302 214.668C402.483 217.533 403.343 220.719 403.88 224.229V238.569C403.45 241.864 402.662 244.889 401.517 247.646C400.371 250.368 398.849 252.749 396.951 254.79C395.053 256.795 392.762 258.353 390.076 259.463C387.426 260.537 384.365 261.074 380.892 261.074C377.454 261.074 374.357 260.358 371.6 258.926C368.842 257.493 366.497 255.47 364.563 252.856C362.63 250.207 361.144 247.074 360.105 243.457C359.067 239.84 358.548 235.866 358.548 231.533ZM364.993 230.405V231.533C364.993 234.935 365.333 238.086 366.014 240.986C366.694 243.887 367.732 246.411 369.129 248.56C370.525 250.708 372.298 252.391 374.446 253.608C376.595 254.826 379.137 255.435 382.073 255.435C385.761 255.435 388.859 254.736 391.365 253.34C393.872 251.908 395.877 250.028 397.381 247.7C398.885 245.337 399.977 242.759 400.657 239.966V223.262C400.228 221.364 399.601 219.43 398.777 217.461C397.954 215.492 396.826 213.683 395.394 212.036C393.997 210.353 392.207 209.01 390.022 208.008C387.874 206.969 385.26 206.45 382.181 206.45C379.209 206.45 376.648 207.059 374.5 208.276C372.352 209.494 370.561 211.195 369.129 213.379C367.732 215.527 366.694 218.052 366.014 220.952C365.333 223.853 364.993 227.004 364.993 230.405ZM444.7 261.074C440.905 261.074 437.413 260.376 434.227 258.979C431.076 257.583 428.318 255.614 425.955 253.071C423.628 250.529 421.819 247.521 420.53 244.048C419.277 240.539 418.65 236.707 418.65 232.554V230.244C418.65 225.768 419.313 221.722 420.638 218.105C421.963 214.489 423.789 211.392 426.116 208.813C428.444 206.235 431.093 204.266 434.065 202.905C437.073 201.509 440.224 200.811 443.519 200.811C447.207 200.811 450.483 201.473 453.348 202.798C456.212 204.087 458.611 205.931 460.545 208.33C462.514 210.693 464 213.504 465.003 216.763C466.006 219.985 466.507 223.548 466.507 227.451V231.372H422.518V225.894H460.115V225.142C460.044 221.883 459.381 218.84 458.128 216.011C456.91 213.146 455.084 210.819 452.649 209.028C450.215 207.238 447.171 206.343 443.519 206.343C440.797 206.343 438.291 206.916 435.999 208.062C433.743 209.207 431.792 210.854 430.145 213.003C428.533 215.116 427.28 217.64 426.385 220.576C425.525 223.477 425.096 226.699 425.096 230.244V232.554C425.096 235.776 425.561 238.784 426.492 241.577C427.459 244.334 428.82 246.769 430.574 248.882C432.365 250.994 434.477 252.642 436.912 253.823C439.347 255.005 442.033 255.596 444.969 255.596C448.406 255.596 451.45 254.969 454.1 253.716C456.749 252.427 459.131 250.404 461.243 247.646L465.271 250.762C464.018 252.624 462.443 254.342 460.545 255.918C458.683 257.493 456.445 258.747 453.831 259.678C451.217 260.609 448.174 261.074 444.7 261.074ZM485.252 213.916V260H478.807V201.885H484.983L485.252 213.916ZM484.07 227.344L480.955 225.732C481.17 222.295 481.814 219.072 482.889 216.064C483.999 213.057 485.538 210.407 487.508 208.115C489.477 205.824 491.84 204.033 494.598 202.744C497.355 201.455 500.488 200.811 503.997 200.811C506.826 200.811 509.386 201.204 511.678 201.992C514.005 202.744 515.975 203.944 517.586 205.591C519.233 207.202 520.504 209.315 521.399 211.929C522.295 214.543 522.742 217.676 522.742 221.328V260H516.351V221.543C516.351 217.676 515.742 214.65 514.524 212.466C513.343 210.282 511.678 208.724 509.529 207.793C507.417 206.862 504.964 206.396 502.171 206.396C498.877 206.396 496.084 207.077 493.792 208.438C491.536 209.762 489.692 211.499 488.26 213.647C486.863 215.76 485.825 218.034 485.145 220.469C484.464 222.868 484.106 225.16 484.07 227.344ZM522.688 222.295L518.392 222.402C518.571 219.574 519.215 216.87 520.325 214.292C521.471 211.714 523.029 209.422 524.998 207.417C526.967 205.376 529.313 203.765 532.034 202.583C534.791 201.401 537.889 200.811 541.326 200.811C544.334 200.811 547.02 201.222 549.383 202.046C551.746 202.834 553.733 204.105 555.345 205.859C556.992 207.578 558.245 209.78 559.104 212.466C559.964 215.151 560.394 218.374 560.394 222.134V260H553.948V222.08C553.948 217.962 553.34 214.775 552.122 212.52C550.94 210.228 549.293 208.634 547.181 207.739C545.068 206.844 542.597 206.396 539.769 206.396C536.976 206.432 534.523 206.951 532.41 207.954C530.298 208.921 528.525 210.21 527.093 211.821C525.696 213.397 524.622 215.098 523.87 216.924C523.154 218.75 522.76 220.54 522.688 222.295ZM593.963 254.199L612.063 201.885H618.992L594.393 269.346C593.891 270.671 593.247 272.139 592.459 273.75C591.707 275.361 590.704 276.901 589.451 278.369C588.234 279.873 586.694 281.09 584.832 282.021C583.006 282.988 580.768 283.472 578.118 283.472C577.438 283.472 576.561 283.382 575.486 283.203C574.448 283.06 573.696 282.917 573.23 282.773L573.177 277.349C573.571 277.456 574.144 277.546 574.896 277.617C575.647 277.689 576.167 277.725 576.453 277.725C578.781 277.725 580.732 277.331 582.308 276.543C583.919 275.755 585.262 274.574 586.336 272.998C587.41 271.458 588.359 269.525 589.183 267.197L593.963 254.199ZM577.044 201.885L595.574 251.782L597.293 258.496L592.62 261.128L570.062 201.885H577.044Z" fill="#FDAB02"/>
<rect y="48" width="206" height="24" fill="white"/>
<path d="M0.5 272H206.5V296H0.5V272Z" fill="white"/>
<path d="M0.5 272H206.5V296H0.5V272Z" fill="white"/>
<path d="M193 90C193 113.869 183.518 136.761 166.64 153.64C149.761 170.518 126.869 180 103 180C79.1305 180 56.2387 170.518 39.3604 153.64C22.4821 136.761 13 113.869 13 90L34.2641 90C34.2641 108.23 41.5059 125.713 54.3964 138.604C67.2869 151.494 84.7701 158.736 103 158.736C121.23 158.736 138.713 151.494 151.604 138.604C164.494 125.713 171.736 108.23 171.736 90H193Z" fill="white"/>
<path d="M193 255C193 231.131 183.518 208.239 166.64 191.36C149.761 174.482 126.869 165 103 165C79.1305 165 56.2387 174.482 39.3604 191.36C22.4821 208.239 13 231.131 13 255L34.2641 255C34.2641 236.77 41.5059 219.287 54.3964 206.396C67.2869 193.506 84.7701 186.264 103 186.264C121.23 186.264 138.713 193.506 151.604 206.396C164.494 219.287 171.736 236.77 171.736 255H193Z" fill="white"/>
<path d="M160 111.5C156.5 123 152.205 132.023 141.891 139.431C131.576 146.838 117.587 151 103 151C88.4131 151 74.4236 146.838 64.1091 139.431C53.7946 132.023 46 121.976 46 111.5C61.9726 108.456 69.8736 106.239 103 111.5C123.08 115.963 163.5 100 160 111.5Z" fill="#FDAB02"/>
<path d="M163 255.5C163 252.677 158.015 247.609 155 245C151.985 242.391 147.572 242.294 142 240.297C136.428 238.301 133.241 236.717 125.961 235.637C103 226.5 108 206.5 103 193.5C91.5 218 103 219 80.039 235.637C72.7595 236.717 69.5715 238.301 64 240.297C58.4285 242.294 54.5153 244.664 51.5 247.272C48.4847 249.881 43 252.677 43 255.5H103H163Z" fill="#FDAB02"/>
</svg>
