<svg width="140" height="76" viewBox="0 0 140 76" fill="none" xmlns="http://www.w3.org/2000/svg">
<rect y="10.574" width="45.8107" height="5.28696" fill="black"/>
<path d="M65.5031 30.7998H69.3413C69.2643 32.0578 68.9177 33.1746 68.3015 34.1502C67.6939 35.1258 66.8424 35.8875 65.747 36.4352C64.6601 36.9829 63.3508 37.2567 61.8189 37.2567C60.6208 37.2567 59.5468 37.0513 58.5969 36.6406C57.6469 36.2212 56.8339 35.6222 56.1579 34.8434C55.4903 34.0646 54.9812 33.1233 54.6303 32.0193C54.2794 30.9153 54.104 29.6787 54.104 28.3095V27.0129C54.104 25.6437 54.2837 24.4071 54.6431 23.3031C55.0111 22.1906 55.5331 21.2449 56.2092 20.4661C56.8938 19.6874 57.7111 19.0883 58.661 18.669C59.611 18.2497 60.6722 18.04 61.8446 18.04C63.4021 18.04 64.7158 18.3224 65.7855 18.8872C66.8638 19.452 67.6982 20.2308 68.2887 21.2235C68.8877 22.2162 69.2472 23.3459 69.367 24.6124H65.5159C65.4731 23.8594 65.3234 23.2218 65.0666 22.6998C64.8099 22.1692 64.4205 21.7712 63.8985 21.5059C63.385 21.2321 62.7004 21.0952 61.8446 21.0952C61.2027 21.0952 60.6422 21.215 60.163 21.4546C59.6837 21.6942 59.2815 22.0579 58.9563 22.5457C58.6311 23.0335 58.3872 23.6497 58.2246 24.3942C58.0706 25.1302 57.9935 25.9945 57.9935 26.9873V28.3095C57.9935 29.2765 58.0663 30.128 58.2118 30.864C58.3572 31.5914 58.5797 32.2076 58.8793 32.7125C59.1874 33.2089 59.581 33.5854 60.0603 33.8421C60.5481 34.0903 61.1343 34.2144 61.8189 34.2144C62.6234 34.2144 63.2866 34.086 63.8086 33.8293C64.3307 33.5726 64.7286 33.1917 65.0024 32.6868C65.2849 32.1819 65.4517 31.5529 65.5031 30.7998ZM75.2462 17.2826V37H71.5492V17.2826H75.2462ZM74.7199 29.5675H73.7058C73.7144 28.6004 73.8428 27.7104 74.0909 26.8974C74.3391 26.0758 74.6943 25.3655 75.1564 24.7665C75.6185 24.1589 76.1705 23.6882 76.8123 23.3544C77.4627 23.0207 78.1816 22.8538 78.9689 22.8538C79.6536 22.8538 80.274 22.9522 80.8303 23.149C81.3951 23.3373 81.8786 23.6454 82.2808 24.0733C82.6916 24.4926 83.0083 25.0446 83.2308 25.7293C83.4533 26.4139 83.5645 27.244 83.5645 28.2196V37H79.8418V28.1939C79.8418 27.5778 79.752 27.0942 79.5723 26.7434C79.4011 26.3839 79.1486 26.1315 78.8149 25.986C78.4897 25.8319 78.0875 25.7549 77.6082 25.7549C77.0776 25.7549 76.6241 25.8533 76.2475 26.0502C75.8795 26.247 75.5843 26.5209 75.3618 26.8717C75.1393 27.214 74.9767 27.6163 74.874 28.0784C74.7713 28.5405 74.7199 29.0369 74.7199 29.5675ZM90.0728 26.14V37H86.3758V23.1105H89.8546L90.0728 26.14ZM94.2576 23.0207L94.1934 26.4481C94.0137 26.4224 93.7955 26.401 93.5387 26.3839C93.2906 26.3583 93.0638 26.3454 92.8584 26.3454C92.3364 26.3454 91.8828 26.4139 91.4977 26.5508C91.1211 26.6792 90.8045 26.8717 90.5478 27.1285C90.2996 27.3852 90.1113 27.6976 89.9829 28.0656C89.8631 28.4335 89.7947 28.8529 89.7775 29.3236L89.033 29.0925C89.033 28.1939 89.1229 27.3681 89.3026 26.615C89.4823 25.8533 89.7433 25.1901 90.0856 24.6253C90.4365 24.0605 90.8644 23.624 91.3693 23.3159C91.8742 23.0078 92.4519 22.8538 93.1023 22.8538C93.3077 22.8538 93.5173 22.8709 93.7313 22.9051C93.9452 22.9308 94.1207 22.9693 94.2576 23.0207ZM95.0278 30.1965V29.9269C95.0278 28.9085 95.1733 27.9714 95.4643 27.1156C95.7552 26.2513 96.1789 25.5025 96.7351 24.8692C97.2914 24.2359 97.976 23.7438 98.789 23.3929C99.602 23.0335 100.535 22.8538 101.587 22.8538C102.64 22.8538 103.577 23.0335 104.399 23.3929C105.22 23.7438 105.909 24.2359 106.465 24.8692C107.03 25.5025 107.458 26.2513 107.749 27.1156C108.04 27.9714 108.186 28.9085 108.186 29.9269V30.1965C108.186 31.2063 108.04 32.1434 107.749 33.0077C107.458 33.8635 107.03 34.6123 106.465 35.2542C105.909 35.8875 105.225 36.3796 104.412 36.7304C103.599 37.0813 102.666 37.2567 101.613 37.2567C100.56 37.2567 99.6234 37.0813 98.8018 36.7304C97.9888 36.3796 97.2999 35.8875 96.7351 35.2542C96.1789 34.6123 95.7552 33.8635 95.4643 33.0077C95.1733 32.1434 95.0278 31.2063 95.0278 30.1965ZM98.7248 29.9269V30.1965C98.7248 30.7784 98.7762 31.3218 98.8789 31.8268C98.9816 32.3317 99.1442 32.7767 99.3667 33.1618C99.5977 33.5383 99.8973 33.8336 100.265 34.0475C100.633 34.2615 101.083 34.3684 101.613 34.3684C102.127 34.3684 102.567 34.2615 102.935 34.0475C103.303 33.8336 103.599 33.5383 103.821 33.1618C104.044 32.7767 104.206 32.3317 104.309 31.8268C104.42 31.3218 104.476 30.7784 104.476 30.1965V29.9269C104.476 29.3621 104.42 28.8315 104.309 28.3351C104.206 27.8302 104.039 27.3852 103.808 27.0001C103.586 26.6064 103.29 26.2984 102.922 26.0758C102.554 25.8533 102.109 25.7421 101.587 25.7421C101.065 25.7421 100.62 25.8533 100.252 26.0758C99.893 26.2984 99.5977 26.6064 99.3667 27.0001C99.1442 27.3852 98.9816 27.8302 98.8789 28.3351C98.7762 28.8315 98.7248 29.3621 98.7248 29.9269ZM114.078 26.0758V37H110.381V23.1105H113.847L114.078 26.0758ZM113.539 29.5675H112.537C112.537 28.5405 112.67 27.6163 112.935 26.7947C113.201 25.9646 113.573 25.2586 114.052 24.6766C114.531 24.0861 115.1 23.6368 115.759 23.3288C116.427 23.0121 117.171 22.8538 117.993 22.8538C118.643 22.8538 119.238 22.9479 119.777 23.1362C120.316 23.3245 120.779 23.624 121.164 24.0348C121.557 24.4456 121.857 24.989 122.062 25.6651C122.276 26.3411 122.383 27.167 122.383 28.1426V37H118.66V28.1297C118.66 27.5136 118.575 27.0343 118.404 26.692C118.233 26.3497 117.98 26.1101 117.646 25.9732C117.321 25.8277 116.919 25.7549 116.44 25.7549C115.943 25.7549 115.511 25.8533 115.143 26.0502C114.784 26.247 114.484 26.5209 114.245 26.8717C114.014 27.214 113.838 27.6163 113.718 28.0784C113.598 28.5405 113.539 29.0369 113.539 29.5675ZM124.604 30.1965V29.9269C124.604 28.9085 124.749 27.9714 125.04 27.1156C125.331 26.2513 125.755 25.5025 126.311 24.8692C126.867 24.2359 127.552 23.7438 128.365 23.3929C129.178 23.0335 130.111 22.8538 131.164 22.8538C132.216 22.8538 133.153 23.0335 133.975 23.3929C134.796 23.7438 135.485 24.2359 136.042 24.8692C136.606 25.5025 137.034 26.2513 137.325 27.1156C137.616 27.9714 137.762 28.9085 137.762 29.9269V30.1965C137.762 31.2063 137.616 32.1434 137.325 33.0077C137.034 33.8635 136.606 34.6123 136.042 35.2542C135.485 35.8875 134.801 36.3796 133.988 36.7304C133.175 37.0813 132.242 37.2567 131.189 37.2567C130.137 37.2567 129.199 37.0813 128.378 36.7304C127.565 36.3796 126.876 35.8875 126.311 35.2542C125.755 34.6123 125.331 33.8635 125.04 33.0077C124.749 32.1434 124.604 31.2063 124.604 30.1965ZM128.301 29.9269V30.1965C128.301 30.7784 128.352 31.3218 128.455 31.8268C128.558 32.3317 128.72 32.7767 128.943 33.1618C129.174 33.5383 129.473 33.8336 129.841 34.0475C130.209 34.2615 130.659 34.3684 131.189 34.3684C131.703 34.3684 132.143 34.2615 132.511 34.0475C132.879 33.8336 133.175 33.5383 133.397 33.1618C133.62 32.7767 133.782 32.3317 133.885 31.8268C133.996 31.3218 134.052 30.7784 134.052 30.1965V29.9269C134.052 29.3621 133.996 28.8315 133.885 28.3351C133.782 27.8302 133.615 27.3852 133.384 27.0001C133.162 26.6064 132.867 26.2984 132.499 26.0758C132.131 25.8533 131.686 25.7421 131.164 25.7421C130.641 25.7421 130.196 25.8533 129.828 26.0758C129.469 26.2984 129.174 26.6064 128.943 27.0001C128.72 27.3852 128.558 27.8302 128.455 28.3351C128.352 28.8315 128.301 29.3621 128.301 29.9269Z" fill="black"/>
<path d="M59.5425 58.0233C60.1387 58.0233 60.6957 57.9135 61.2134 57.6939C61.739 57.4664 62.1705 57.133 62.5078 56.6936C62.853 56.2465 63.0491 55.7013 63.0962 55.058H64.4376C64.3984 55.866 64.1513 56.5877 63.6963 57.2232C63.2491 57.8507 62.6608 58.345 61.9312 58.7058C61.2095 59.0588 60.4133 59.2353 59.5425 59.2353C58.6561 59.2353 57.8716 59.0745 57.1891 58.7529C56.5144 58.4313 55.9496 57.9841 55.4946 57.4114C55.0396 56.8309 54.6945 56.1563 54.4591 55.3875C54.2316 54.6109 54.1179 53.7754 54.1179 52.8811V52.3869C54.1179 51.4926 54.2316 50.661 54.4591 49.8923C54.6945 49.1156 55.0396 48.441 55.4946 47.8683C55.9496 47.2878 56.5144 46.8367 57.1891 46.5151C57.8637 46.1935 58.6443 46.0327 59.5307 46.0327C60.4407 46.0327 61.2566 46.217 61.9783 46.5857C62.7079 46.9544 63.2884 47.4761 63.7198 48.1507C64.1591 48.8254 64.3984 49.6255 64.4376 50.5512H63.0962C63.057 49.8687 62.8765 49.2804 62.5549 48.7862C62.2333 48.2919 61.8096 47.9115 61.284 47.6447C60.7584 47.378 60.174 47.2447 59.5307 47.2447C58.809 47.2447 58.1932 47.3859 57.6833 47.6683C57.1734 47.9428 56.7576 48.3233 56.436 48.8097C56.1222 49.2882 55.8908 49.8373 55.7417 50.4571C55.5927 51.069 55.5182 51.7122 55.5182 52.3869V52.8811C55.5182 53.5636 55.5888 54.2147 55.73 54.8344C55.879 55.4463 56.1104 55.9915 56.4242 56.4701C56.7459 56.9486 57.1616 57.3291 57.6715 57.6115C58.1893 57.886 58.8129 58.0233 59.5425 58.0233ZM75.0162 56.7172V50.1511C75.0162 49.5471 74.8907 49.0254 74.6397 48.5861C74.3887 48.1468 74.02 47.8095 73.5336 47.5741C73.0472 47.3388 72.4471 47.2211 71.7332 47.2211C71.0743 47.2211 70.4859 47.3388 69.9682 47.5741C69.4583 47.8016 69.0543 48.1115 68.7562 48.5037C68.4659 48.8881 68.3208 49.3157 68.3208 49.7864L66.9087 49.7746C66.9087 49.2961 67.0264 48.8332 67.2617 48.3861C67.4971 47.9389 67.8305 47.5388 68.2619 47.1858C68.6934 46.8328 69.2072 46.5543 69.8034 46.3504C70.4075 46.1386 71.0703 46.0327 71.7921 46.0327C72.7021 46.0327 73.5022 46.1856 74.1926 46.4916C74.8907 46.7975 75.4359 47.2564 75.8282 47.8683C76.2204 48.4802 76.4165 49.249 76.4165 50.1747V56.3289C76.4165 56.7682 76.4479 57.2232 76.5107 57.6939C76.5813 58.1645 76.6793 58.5529 76.8048 58.8588V59H75.3104C75.2163 58.7176 75.1418 58.3646 75.0869 57.941C75.0398 57.5095 75.0162 57.1016 75.0162 56.7172ZM75.3457 51.5867L75.3693 52.6693H72.604C71.8823 52.6693 71.2351 52.736 70.6624 52.8693C70.0976 52.9949 69.6191 53.1831 69.2268 53.4342C68.8346 53.6773 68.5326 53.9715 68.3208 54.3167C68.1168 54.6619 68.0148 55.0541 68.0148 55.4934C68.0148 55.9484 68.1286 56.3642 68.3561 56.7407C68.5914 57.1173 68.9209 57.4193 69.3445 57.6468C69.776 57.8664 70.2859 57.9763 70.8742 57.9763C71.6587 57.9763 72.349 57.8311 72.9452 57.5409C73.5493 57.2506 74.0474 56.8702 74.4397 56.3995C74.8319 55.9288 75.0947 55.415 75.2281 54.858L75.8399 55.6699C75.738 56.0621 75.5497 56.4662 75.2751 56.8819C75.0084 57.2898 74.6593 57.6742 74.2279 58.0351C73.7964 58.3881 73.2865 58.6784 72.6981 58.9059C72.1176 59.1255 71.4587 59.2353 70.7213 59.2353C69.8897 59.2353 69.1641 59.0784 68.5443 58.7647C67.9325 58.4509 67.4539 58.0233 67.1088 57.482C66.7714 56.9329 66.6028 56.3132 66.6028 55.6228C66.6028 54.9953 66.7361 54.4344 67.0029 53.9401C67.2696 53.4381 67.654 53.0145 68.156 52.6693C68.6659 52.3163 69.2778 52.0496 69.9917 51.8691C70.7134 51.6809 71.5214 51.5867 72.4157 51.5867H75.3457ZM88.466 56.5289V40.9257H89.8781V59H88.5602L88.466 56.5289ZM79.629 52.7634V52.5163C79.629 51.5279 79.7427 50.6375 79.9702 49.8452C80.1977 49.045 80.5233 48.3625 80.9469 47.7977C81.3783 47.2251 81.8961 46.7897 82.5001 46.4916C83.1042 46.1856 83.7867 46.0327 84.5476 46.0327C85.2929 46.0327 85.9518 46.1542 86.5245 46.3974C87.0971 46.6406 87.5874 46.9897 87.9954 47.4447C88.4111 47.8997 88.7445 48.441 88.9956 49.0686C89.2544 49.6961 89.4427 50.3943 89.5604 51.1631V54.3049C89.4663 55.0266 89.2937 55.6895 89.0426 56.2936C88.7916 56.8898 88.4582 57.4114 88.0424 57.8586C87.6267 58.2979 87.1246 58.6391 86.5362 58.8823C85.9557 59.1177 85.285 59.2353 84.5241 59.2353C83.771 59.2353 83.0924 59.0784 82.4884 58.7647C81.8843 58.4509 81.3705 58.0076 80.9469 57.435C80.5233 56.8545 80.1977 56.1681 79.9702 55.3757C79.7427 54.5834 79.629 53.7126 79.629 52.7634ZM81.041 52.5163V52.7634C81.041 53.5087 81.1155 54.199 81.2646 54.8344C81.4136 55.4699 81.6411 56.0229 81.9471 56.4936C82.253 56.9643 82.6413 57.333 83.112 57.5997C83.5827 57.8664 84.1397 57.9998 84.7829 57.9998C85.591 57.9998 86.2695 57.8468 86.8187 57.5409C87.3678 57.2271 87.8071 56.8152 88.1366 56.3053C88.466 55.7876 88.7053 55.2228 88.8544 54.6109V50.9513C88.7602 50.5355 88.6229 50.1119 88.4425 49.6805C88.2621 49.249 88.015 48.8528 87.7012 48.492C87.3952 48.1233 87.003 47.8291 86.5245 47.6094C86.0538 47.3819 85.4811 47.2682 84.8065 47.2682C84.1554 47.2682 83.5945 47.4016 83.1238 47.6683C82.6531 47.935 82.2609 48.3076 81.9471 48.7862C81.6411 49.2568 81.4136 49.8099 81.2646 50.4453C81.1155 51.0807 81.041 51.7711 81.041 52.5163ZM98.5034 59.2353C97.6718 59.2353 96.907 59.0824 96.2088 58.7764C95.5185 58.4705 94.9144 58.039 94.3967 57.482C93.8868 56.9251 93.4906 56.2661 93.2082 55.5052C92.9336 54.7364 92.7963 53.897 92.7963 52.987V52.481C92.7963 51.5004 92.9415 50.614 93.2317 49.8217C93.522 49.0293 93.9221 48.3508 94.432 47.786C94.9419 47.2211 95.5224 46.7897 96.1735 46.4916C96.8325 46.1856 97.5228 46.0327 98.2445 46.0327C99.0525 46.0327 99.7703 46.1778 100.398 46.468C101.025 46.7504 101.551 47.1544 101.975 47.68C102.406 48.1978 102.732 48.8136 102.951 49.5275C103.171 50.2335 103.281 51.0141 103.281 51.8691V52.7281H93.6436V51.5279H101.881V51.3631C101.865 50.6493 101.72 49.9825 101.445 49.3627C101.178 48.7352 100.778 48.2253 100.245 47.833C99.7115 47.4408 99.0447 47.2447 98.2445 47.2447C97.6483 47.2447 97.0992 47.3702 96.5971 47.6212C96.1029 47.8722 95.6754 48.2331 95.3145 48.7038C94.9615 49.1666 94.6869 49.7197 94.4908 50.3629C94.3025 50.9984 94.2084 51.7044 94.2084 52.481V52.987C94.2084 53.693 94.3104 54.352 94.5143 54.9639C94.7261 55.5679 95.0242 56.1014 95.4086 56.5642C95.8009 57.027 96.2637 57.3879 96.7972 57.6468C97.3306 57.9057 97.919 58.0351 98.5622 58.0351C99.3153 58.0351 99.9821 57.8978 100.563 57.6232C101.143 57.3408 101.665 56.8976 102.128 56.2936L103.01 56.9761C102.736 57.384 102.39 57.7605 101.975 58.1057C101.567 58.4509 101.076 58.7254 100.504 58.9294C99.9311 59.1334 99.2643 59.2353 98.5034 59.2353ZM107.388 48.9038V59H105.975V46.268H107.329L107.388 48.9038ZM107.129 51.8456L106.446 51.4926C106.493 50.7395 106.634 50.0335 106.87 49.3745C107.113 48.7156 107.45 48.135 107.882 47.633C108.313 47.1309 108.831 46.7387 109.435 46.4563C110.039 46.1739 110.725 46.0327 111.494 46.0327C112.114 46.0327 112.675 46.1189 113.177 46.2915C113.687 46.4563 114.118 46.7191 114.471 47.0799C114.832 47.4329 115.111 47.8958 115.307 48.4684C115.503 49.0411 115.601 49.7275 115.601 50.5277V59H114.201V50.5748C114.201 49.7275 114.067 49.0646 113.801 48.5861C113.542 48.1076 113.177 47.7663 112.706 47.5624C112.243 47.3584 111.706 47.2564 111.094 47.2564C110.372 47.2564 109.761 47.4055 109.259 47.7036C108.764 47.9938 108.36 48.3743 108.047 48.845C107.741 49.3078 107.513 49.806 107.364 50.3394C107.215 50.865 107.137 51.3671 107.129 51.8456ZM115.589 50.7395L114.648 50.763C114.687 50.1433 114.828 49.551 115.071 48.9862C115.323 48.4214 115.664 47.9193 116.095 47.48C116.527 47.0329 117.04 46.6798 117.637 46.421C118.241 46.1621 118.919 46.0327 119.672 46.0327C120.331 46.0327 120.92 46.1229 121.437 46.3033C121.955 46.4759 122.391 46.7544 122.744 47.1388C123.104 47.5153 123.379 47.9978 123.567 48.5861C123.756 49.1745 123.85 49.8805 123.85 50.7042V59H122.438V50.6924C122.438 49.7903 122.304 49.0921 122.038 48.5979C121.779 48.0958 121.418 47.7467 120.955 47.5506C120.492 47.3545 119.951 47.2564 119.331 47.2564C118.719 47.2643 118.182 47.378 117.719 47.5977C117.256 47.8095 116.868 48.0919 116.554 48.4449C116.248 48.7901 116.013 49.1627 115.848 49.5628C115.691 49.9629 115.605 50.3551 115.589 50.7395ZM131.204 57.7292L135.17 46.268H136.688L131.298 61.0475C131.188 61.3377 131.047 61.6594 130.875 62.0124C130.71 62.3654 130.49 62.7027 130.216 63.0243C129.949 63.3538 129.612 63.6205 129.204 63.8245C128.804 64.0363 128.313 64.1422 127.733 64.1422C127.584 64.1422 127.392 64.1226 127.156 64.0834C126.929 64.052 126.764 64.0206 126.662 63.9893L126.65 62.8008C126.737 62.8243 126.862 62.8439 127.027 62.8596C127.192 62.8753 127.305 62.8831 127.368 62.8831C127.878 62.8831 128.306 62.7969 128.651 62.6243C129.004 62.4517 129.298 62.1928 129.533 61.8476C129.769 61.5103 129.976 61.0867 130.157 60.5768L131.204 57.7292ZM127.498 46.268L131.557 57.1996L131.934 58.6705L130.91 59.2471L125.968 46.268H127.498Z" fill="black"/>
<path d="M0.111206 59.9188H45.9219V65.2058H0.111206V59.9188Z" fill="black"/>
<path d="M0.111206 59.9188H45.9219V65.2058H0.111206V59.9188Z" fill="black"/>
<path d="M42.9198 19.8261C42.9198 25.0843 40.8111 30.1271 37.0577 33.8453C33.3043 37.5634 28.2135 39.6522 22.9054 39.6522C17.5972 39.6522 12.5065 37.5634 8.75307 33.8453C4.99965 30.1271 2.89099 25.0843 2.89099 19.8261L7.61975 19.8261C7.61975 23.842 9.2302 27.6933 12.0968 30.533C14.9634 33.3726 18.8514 34.9679 22.9054 34.9679C26.9594 34.9679 30.8473 33.3726 33.714 30.533C36.5806 27.6933 38.191 23.842 38.191 19.8261H42.9198Z" fill="black"/>
<path d="M42.9198 56.1739C42.9198 50.9157 40.8111 45.8729 37.0577 42.1547C33.3043 38.4366 28.2135 36.3478 22.9054 36.3478C17.5972 36.3478 12.5065 38.4366 8.75307 42.1547C4.99965 45.8729 2.89099 50.9157 2.89099 56.1739L7.61975 56.1739C7.61975 52.158 9.2302 48.3067 12.0968 45.467C14.9634 42.6274 18.8514 41.0321 22.9054 41.0321C26.9594 41.0321 30.8473 42.6274 33.714 45.467C36.5806 48.3067 38.191 52.158 38.191 56.1739H42.9198Z" fill="black"/>
<path d="M35.5811 24.5623C34.8028 27.0957 33.8477 29.0834 31.554 30.7152C29.2602 32.347 26.1492 33.2638 22.9053 33.2638C19.6615 33.2638 16.5505 32.347 14.2567 30.7152C11.9629 29.0834 10.2296 26.8701 10.2296 24.5623C13.7816 23.8918 15.5386 23.4034 22.9053 24.5623C27.3709 25.5455 36.3595 22.029 35.5811 24.5623Z" fill="#FDAB02"/>
<path d="M36.2483 56.2841C36.2483 55.6621 35.1398 54.5457 34.4692 53.971C33.7987 53.3964 32.8173 53.3749 31.5783 52.9351C30.3393 52.4953 29.6303 52.1464 28.0115 51.9084C22.9054 49.8957 24.0173 45.4899 22.9054 42.6261C20.348 48.0232 22.9054 48.2435 17.7992 51.9084C16.1804 52.1464 15.4715 52.4953 14.2325 52.9351C12.9935 53.3749 12.1232 53.897 11.4527 54.4716C10.7821 55.0462 9.56244 55.6621 9.56244 56.2841H22.9054H36.2483Z" fill="#FDAB02"/>
</svg>
