<svg width="40" height="40" viewBox="0 0 40 40" fill="none" xmlns="http://www.w3.org/2000/svg">
<mask id="mask0_386_448" style="mask-type:alpha" maskUnits="userSpaceOnUse" x="0" y="0" width="40" height="40">
<rect width="40" height="40" fill="#D9D9D9"/>
</mask>
<g mask="url(#mask0_386_448)">
<path d="M8.02585 30.3334C7.36974 30.3334 6.81252 30.1042 6.35419 29.6459C5.89585 29.1876 5.66669 28.6304 5.66669 27.9742V12.0259C5.66669 11.3698 5.89585 10.8126 6.35419 10.3542C6.81252 9.89591 7.36974 9.66675 8.02585 9.66675H31.9742C32.6581 9.66675 33.2222 9.89591 33.6667 10.3542C34.1111 10.8126 34.3334 11.3698 34.3334 12.0259V27.9742C34.3334 28.6304 34.1111 29.1876 33.6667 29.6459C33.2222 30.1042 32.6581 30.3334 31.9742 30.3334H8.02585ZM20 20.5259L33 12.6826L32.4871 11.0001L20 18.4584L7.51294 11.0001L7.00002 12.6826L20 20.5259Z" fill="#1C1B1F"/>
</g>
</svg>
