<svg width="31" height="31" viewBox="0 0 31 31" fill="none" xmlns="http://www.w3.org/2000/svg">
<path d="M6.30741 26.9713V16.0772H8.90075C9.27464 16.0772 9.66075 16.1065 10.0591 16.1651C10.4577 16.224 10.8301 16.3229 11.1762 16.4617L19.5032 19.3942C20.2766 19.687 20.9282 20.1309 21.4582 20.7259C21.9882 21.3212 22.2532 22.044 22.2532 22.8942L22.2449 22.9088C22.2396 22.9183 22.2017 22.923 22.1312 22.923H20.7116C19.9785 22.923 19.2312 22.8824 18.4695 22.8013C17.7078 22.7202 16.9712 22.5599 16.2595 22.3205L13.8141 21.5384L13.2116 23.0288L15.2757 23.7372C16.1624 24.0258 17.0453 24.2315 17.9245 24.3542C18.8039 24.477 19.7116 24.5384 20.6474 24.5384H28.702C29.3237 24.5384 29.8066 24.7676 30.1507 25.2259C30.4946 25.6842 30.6666 26.2201 30.6666 26.8334L19.3428 30.6797L6.30741 26.9713ZM0.640747 29.3334V16.0772H4.97408V29.3334H0.640747ZM22.3203 14.9326L19.0449 12.0867C16.5619 9.79814 15.096 8.14689 14.6474 7.133C14.1985 6.11911 13.9741 5.29494 13.9741 4.6605C13.9741 3.51522 14.3603 2.56328 15.1328 1.80466C15.9053 1.04605 16.892 0.666748 18.0928 0.666748C18.9476 0.666748 19.727 0.906053 20.4312 1.38466C21.1351 1.86328 21.7648 2.44022 22.3203 3.1155C22.8481 2.41244 23.471 1.82855 24.1891 1.36383C24.9069 0.899108 25.6931 0.666748 26.5478 0.666748C27.6931 0.666748 28.6659 1.06689 29.4662 1.86716C30.2664 2.66744 30.6666 3.64022 30.6666 4.7855C30.6666 5.41994 30.4507 6.23716 30.0191 7.23716C29.5874 8.23716 28.1302 9.85369 25.6474 12.0867L22.3203 14.9326Z" fill="black"/>
</svg>
