<svg width="64" height="64" viewBox="0 0 64 64" fill="none" xmlns="http://www.w3.org/2000/svg">
<mask id="mask0_229_178" style="mask-type:alpha" maskUnits="userSpaceOnUse" x="0" y="0" width="64" height="64">
<rect width="64" height="64" fill="#D9D9D9"/>
</mask>
<g mask="url(#mask0_229_178)">
<path d="M32 21.2719L25.8973 15.1693L32 9.06659L38.154 15.1693L32 21.2719ZM5.91797 49.5586V39.6919C5.91797 38.803 6.21375 38.0201 6.8053 37.3433C7.39641 36.6664 8.13641 36.2937 9.0253 36.2253H16.8666C17.4955 36.2253 18.0664 36.363 18.5793 36.6386C19.0922 36.9137 19.5589 37.311 19.9793 37.8306C21.3366 39.8684 23.0615 41.4437 25.154 42.5566C27.246 43.669 29.528 44.2253 32 44.2253C34.4377 44.2253 36.7113 43.669 38.8206 42.5566C40.93 41.4437 42.6804 39.8684 44.072 37.8306C44.424 37.311 44.8649 36.9137 45.3946 36.6386C45.9249 36.363 46.5044 36.2253 47.1333 36.2253H54.9746C55.8293 36.2937 56.5693 36.6664 57.1946 37.3433C57.8204 38.0201 58.1333 38.803 58.1333 39.6919V49.5586H41.6V43.1486C40.2906 44.2735 38.794 45.0897 37.11 45.5973C35.4264 46.1048 33.7231 46.3586 32 46.3586C30.2769 46.3586 28.6017 46.1219 26.9746 45.6486C25.3471 45.1753 23.8393 44.3761 22.4513 43.2513V49.5586H5.91797ZM12.7386 30.9746C10.9266 30.9746 9.36241 30.3164 8.04597 28.9999C6.72997 27.6835 6.07197 26.1195 6.07197 24.3079C6.07197 22.4959 6.72997 20.9317 8.04597 19.6153C9.36241 18.2993 10.9266 17.6413 12.7386 17.6413C14.5506 17.6413 16.1146 18.2993 17.4306 19.6153C18.7471 20.9317 19.4053 22.4959 19.4053 24.3079C19.4053 26.1195 18.7471 27.6835 17.4306 28.9999C16.1146 30.3164 14.5506 30.9746 12.7386 30.9746ZM51.2613 30.9746C49.4493 30.9746 47.8853 30.3164 46.5693 28.9999C45.2529 27.6835 44.5946 26.1195 44.5946 24.3079C44.5946 22.4959 45.2529 20.9317 46.5693 19.6153C47.8853 18.2993 49.4493 17.6413 51.2613 17.6413C53.0733 17.6413 54.6375 18.2993 55.954 19.6153C57.27 20.9317 57.928 22.4959 57.928 24.3079C57.928 26.1195 57.27 27.6835 55.954 28.9999C54.6375 30.3164 53.0733 30.9746 51.2613 30.9746Z" fill="#6685E0"/>
</g>
</svg>
