<svg width="41" height="40" viewBox="0 0 41 40" fill="none" xmlns="http://www.w3.org/2000/svg">
<g id="send_money">
<mask id="mask0_252_1678" style="mask-type:alpha" maskUnits="userSpaceOnUse" x="0" y="0" width="41" height="40">
<rect id="Bounding box" x="0.333252" width="40" height="40" fill="#D9D9D9"/>
</mask>
<g mask="url(#mask0_252_1678)">
<path id="send_money_2" d="M12.3973 30.1025C9.5298 29.4744 7.42396 28.1347 6.0798 26.0833C4.73591 24.0319 4.06396 22.0042 4.06396 20C4.06396 17.9958 4.72896 15.9611 6.05896 13.8958C7.38924 11.8305 9.50202 10.4978 12.3973 9.89749V11.25C10.314 11.6944 8.62646 12.7361 7.3348 14.375C6.04313 16.0139 5.3973 17.8889 5.3973 20C5.3973 22.1111 6.04313 23.9861 7.3348 25.625C8.62646 27.2639 10.314 28.3055 12.3973 28.75V30.1025ZM24.3973 30.3333C21.5126 30.3333 19.0692 29.3322 17.0673 27.33C15.0651 25.328 14.064 22.8847 14.064 20C14.064 17.1153 15.0651 14.6719 17.0673 12.67C19.0692 10.6678 21.5126 9.66666 24.3973 9.66666C25.6601 9.66666 26.8977 9.89749 28.1102 10.3592C29.323 10.8205 30.4379 11.4893 31.4548 12.3654L30.484 13.3367C29.644 12.5886 28.7074 12.0122 27.6744 11.6075C26.6413 11.2025 25.549 11 24.3973 11C21.8973 11 19.7723 11.875 18.0223 13.625C16.2723 15.375 15.3973 17.5 15.3973 20C15.3973 22.5 16.2723 24.625 18.0223 26.375C19.7723 28.125 21.8973 29 24.3973 29C25.549 29 26.6413 28.7905 27.6744 28.3717C28.7074 27.953 29.644 27.3836 30.484 26.6633L31.4548 27.6346C30.4379 28.5107 29.323 29.1794 28.1102 29.6408C26.8977 30.1025 25.6601 30.3333 24.3973 30.3333ZM33.7561 24.8462L32.7852 23.875L35.9935 20.6667H23.0894V19.3333H35.9935L32.7852 16.125L33.7561 15.1537L38.6023 20L33.7561 24.8462Z" fill="black"/>
</g>
</g>
</svg>
